<svg width="16" height="16" viewBox="0 0 16 16" fill="none" xmlns="http://www.w3.org/2000/svg">
<path d="M7.1693 13.9167C7.11349 13.9167 7.06326 13.8972 7.01862 13.8583C6.97955 13.8194 6.96002 13.7694 6.96002 13.7083V9.56667L5.75459 10.4917C5.70436 10.5306 5.65135 10.5444 5.59554 10.5333C5.54531 10.5222 5.50067 10.4917 5.4616 10.4417L5.04305 9.9C5.00957 9.85 4.99562 9.79722 5.0012 9.74167C5.01236 9.68611 5.04305 9.64167 5.09328 9.60833L7.00187 8.14167C7.03536 8.11944 7.06605 8.10556 7.09396 8.1C7.12744 8.08889 7.16372 8.08333 7.20278 8.08333H8.09011C8.14592 8.08333 8.19335 8.10278 8.23242 8.14167C8.27148 8.18056 8.29102 8.23056 8.29102 8.29167V13.7083C8.29102 13.7694 8.27148 13.8194 8.23242 13.8583C8.19335 13.8972 8.14592 13.9167 8.09011 13.9167H7.1693Z" fill="#232323"/>
<path d="M11.6603 14C11.2585 14 10.9125 13.9444 10.6223 13.8333C10.3377 13.7167 10.1005 13.5583 9.91075 13.3583C9.72658 13.1528 9.58707 12.9167 9.49219 12.65C9.4029 12.3778 9.34989 12.0889 9.33314 11.7833C9.32756 11.6333 9.32198 11.4667 9.3164 11.2833C9.3164 11.0944 9.3164 10.9056 9.3164 10.7167C9.32198 10.5278 9.32756 10.3556 9.33314 10.2C9.34431 9.89444 9.39732 9.60833 9.49219 9.34167C9.59265 9.075 9.73774 8.84167 9.92749 8.64167C10.1172 8.44167 10.3544 8.28611 10.639 8.175C10.9292 8.05833 11.2696 8 11.6603 8C12.0509 8 12.3886 8.05833 12.6732 8.175C12.9578 8.28611 13.195 8.44167 13.3847 8.64167C13.5745 8.84167 13.7168 9.075 13.8117 9.34167C13.9121 9.60833 13.9707 9.89444 13.9874 10.2C13.993 10.3556 13.9958 10.5278 13.9958 10.7167C14.0014 10.9056 14.0014 11.0944 13.9958 11.2833C13.9958 11.4667 13.993 11.6333 13.9874 11.7833C13.9707 12.0889 13.9149 12.3778 13.82 12.65C13.7252 12.9167 13.5828 13.1528 13.3931 13.3583C13.2089 13.5583 12.9718 13.7167 12.6816 13.8333C12.3969 13.9444 12.0565 14 11.6603 14ZM11.6603 12.9167C11.984 12.9167 12.2212 12.8111 12.3718 12.6C12.5225 12.3889 12.6034 12.1028 12.6146 11.7417C12.6202 11.5806 12.623 11.4139 12.623 11.2417C12.6285 11.0694 12.6285 10.8972 12.623 10.725C12.623 10.5528 12.6202 10.3917 12.6146 10.2417C12.6034 9.89722 12.5225 9.61667 12.3718 9.4C12.2212 9.18333 11.984 9.07222 11.6603 9.06667C11.331 9.07222 11.0911 9.18333 10.9404 9.4C10.7953 9.61667 10.7172 9.89722 10.706 10.2417C10.7004 10.3917 10.6948 10.5528 10.6893 10.725C10.6893 10.8972 10.6893 11.0694 10.6893 11.2417C10.6948 11.4139 10.7004 11.5806 10.706 11.7417C10.7172 12.1028 10.7981 12.3889 10.9488 12.6C11.0994 12.8111 11.3366 12.9167 11.6603 12.9167Z" fill="#232323"/>
<path d="M14.5 4L10 7V5.01465C9.83495 5.00595 9.66826 5 9.5 5C5.91015 5 3 7.01472 3 9.5C3 10.4041 3.38701 11.244 4.0498 11.9492C4.38477 12.3713 4.34421 12.9781 3.95215 13.3281C3.545 13.6916 2.89241 13.6232 2.51465 13.2002C1.56125 12.1498 1 10.8755 1 9.5C1 5.91015 4.80558 3 9.5 3C9.66786 3 9.83455 3.00438 10 3.01172V1L14.5 4Z" fill="#232323"/>
</svg>
