<svg width="16" height="16" viewBox="0 0 16 16" fill="none" xmlns="http://www.w3.org/2000/svg">
<path d="M3.1693 13.9167C3.11349 13.9167 3.06326 13.8972 3.01862 13.8583C2.97955 13.8194 2.96002 13.7694 2.96002 13.7083V9.56667L1.75459 10.4917C1.70436 10.5306 1.65135 10.5444 1.59554 10.5333C1.54531 10.5222 1.50067 10.4917 1.4616 10.4417L1.04305 9.9C1.00957 9.85 0.995615 9.79722 1.0012 9.74167C1.01236 9.68611 1.04305 9.64167 1.09328 9.60833L3.00187 8.14167C3.03536 8.11944 3.06605 8.10556 3.09396 8.1C3.12744 8.08889 3.16372 8.08333 3.20278 8.08333H4.09011C4.14592 8.08333 4.19335 8.10278 4.23242 8.14167C4.27148 8.18056 4.29102 8.23056 4.29102 8.29167V13.7083C4.29102 13.7694 4.27148 13.8194 4.23242 13.8583C4.19335 13.8972 4.14592 13.9167 4.09011 13.9167H3.1693Z" fill="#232323"/>
<path d="M7.66029 14C7.25848 14 6.91248 13.9444 6.62228 13.8333C6.33767 13.7167 6.10049 13.5583 5.91075 13.3583C5.72658 13.1528 5.58707 12.9167 5.49219 12.65C5.4029 12.3778 5.34989 12.0889 5.33314 11.7833C5.32756 11.6333 5.32198 11.4667 5.3164 11.2833C5.3164 11.0944 5.3164 10.9056 5.3164 10.7167C5.32198 10.5278 5.32756 10.3556 5.33314 10.2C5.34431 9.89444 5.39732 9.60833 5.49219 9.34167C5.59265 9.075 5.73774 8.84167 5.92749 8.64167C6.11723 8.44167 6.35441 8.28611 6.63903 8.175C6.92922 8.05833 7.26965 8 7.66029 8C8.05094 8 8.38857 8.05833 8.67319 8.175C8.95781 8.28611 9.19499 8.44167 9.38473 8.64167C9.57447 8.84167 9.71678 9.075 9.81165 9.34167C9.9121 9.60833 9.9707 9.89444 9.98744 10.2C9.99302 10.3556 9.99581 10.5278 9.99581 10.7167C10.0014 10.9056 10.0014 11.0944 9.99581 11.2833C9.99581 11.4667 9.99302 11.6333 9.98744 11.7833C9.9707 12.0889 9.91489 12.3778 9.82002 12.65C9.72515 12.9167 9.58284 13.1528 9.3931 13.3583C9.20894 13.5583 8.97176 13.7167 8.68156 13.8333C8.39695 13.9444 8.05652 14 7.66029 14ZM7.66029 12.9167C7.98397 12.9167 8.22115 12.8111 8.37183 12.6C8.52251 12.3889 8.60343 12.1028 8.61459 11.7417C8.62017 11.5806 8.62296 11.4139 8.62296 11.2417C8.62854 11.0694 8.62854 10.8972 8.62296 10.725C8.62296 10.5528 8.62017 10.3917 8.61459 10.2417C8.60343 9.89722 8.52251 9.61667 8.37183 9.4C8.22115 9.18333 7.98397 9.07222 7.66029 9.06667C7.33103 9.07222 7.09106 9.18333 6.94038 9.4C6.79529 9.61667 6.71716 9.89722 6.706 10.2417C6.70041 10.3917 6.69483 10.5528 6.68925 10.725C6.68925 10.8972 6.68925 11.0694 6.68925 11.2417C6.69483 11.4139 6.70041 11.5806 6.706 11.7417C6.71716 12.1028 6.79808 12.3889 6.94876 12.6C7.09943 12.8111 7.33661 12.9167 7.66029 12.9167Z" fill="#232323"/>
<path d="M1.5 4L6 7V5.01465C6.16505 5.00595 6.33174 5 6.5 5C10.0899 5 13 7.01472 13 9.5C13 10.4041 12.613 11.244 11.9502 11.9492C11.6152 12.3713 11.6558 12.9781 12.0479 13.3281C12.455 13.6916 13.1076 13.6232 13.4854 13.2002C14.4387 12.1498 15 10.8755 15 9.5C15 5.91015 11.1944 3 6.5 3C6.33214 3 6.16545 3.00438 6 3.01172V1L1.5 4Z" fill="#232323"/>
</svg>
