<svg width="16" height="16" viewBox="0 0 16 16" fill="none" xmlns="http://www.w3.org/2000/svg">
<path d="M6 8C6 6.96533 6.94659 6.18931 7.96116 6.39223L14.0388 7.60776C14.4676 7.69351 14.4676 8.30648 14.0388 8.39223L7.96116 9.60776C6.94659 9.81068 6 9.03467 6 8Z" fill="#232323"/>
<path d="M11.9727 4.96582L11.9717 4.96484C11.0579 3.77097 9.61954 3 8 3C5.23858 3 3 5.23858 3 8C3 10.7614 5.23858 13 8 13C9.58934 13 11.0568 12.1775 11.9727 11.0215C12.3575 10.4961 13.0321 10.3355 13.4795 10.6631C13.9268 10.9907 13.9775 11.6826 13.5928 12.208C12.3112 13.8352 10.232 15 8 15C4.13401 15 1 11.866 1 8C1 4.13401 4.13401 1 8 1C10.2173 1 12.3105 2.17054 13.5928 3.7793C13.9775 4.30475 13.9268 4.99657 13.4795 5.32422C13.0321 5.65182 12.3575 5.49119 11.9727 4.96582Z" fill="#232323"/>
</svg>