<svg width="256" height="256" viewBox="0 0 256 256" fill="none" xmlns="http://www.w3.org/2000/svg">
<g id="Size=256">
<path id="Rectangle 584" d="M8 56C8 47.1634 15.1634 40 24 40H232C240.837 40 248 47.1634 248 56V200C248 208.837 240.837 216 232 216H24C15.1634 216 8 208.837 8 200V56Z" fill="url(#paint0_linear_3488_324)"/>
<path id="Rectangle 585" d="M24 61C24 54.3726 29.3726 49 36 49H220C226.627 49 232 54.3726 232 61V167C232 173.627 226.627 179 220 179H36C29.3726 179 24 173.627 24 167V61Z" fill="url(#paint1_linear_3488_324)"/>
<path id="Ellipse 86" d="M170 117C170 140.196 151.196 159 128 159C104.804 159 86 140.196 86 117C86 93.804 104.804 75 128 75C151.196 75 170 93.804 170 117Z" fill="url(#paint2_linear_3488_324)"/>
<path id="Vector" d="M114.233 95C113.156 95.0024 112.121 95.4061 111.338 96.1287C110.556 96.8514 110.085 97.8387 110.021 98.8892H110.008V98.9966L110 99.133C110 99.2281 110 99.3273 110.008 99.4223L110 134.867C110 135.963 110.446 137.014 111.239 137.789C112.032 138.565 113.107 139 114.229 139C114.846 138.998 115.455 138.864 116.014 138.607L116.022 138.616L116.128 138.558L116.145 138.549C116.272 138.488 116.396 138.421 116.517 138.347L149.697 120.695L149.739 120.678V120.666C150.41 120.322 150.973 119.808 151.37 119.178C151.768 118.548 151.985 117.826 151.999 117.086C152.014 116.346 151.824 115.616 151.451 114.972C151.078 114.328 150.535 113.794 149.879 113.425L149.803 113.384L149.786 113.375L116.276 95.5125H116.267C115.645 95.1795 114.947 95.0034 114.237 95H114.233Z" fill="#001534"/>
<path id="Rectangle 664" d="M24 197C24 194.791 25.7909 193 28 193H228C230.209 193 232 194.791 232 197C232 199.209 230.209 201 228 201H28C25.7909 201 24 199.209 24 197Z" fill="#001534"/>
<path id="Ellipse 89" d="M208 197C208 202.523 203.523 207 198 207C192.477 207 188 202.523 188 197C188 191.477 192.477 187 198 187C203.523 187 208 191.477 208 197Z" fill="#001534"/>
</g>
<defs>
<linearGradient id="paint0_linear_3488_324" x1="128" y1="40" x2="128" y2="216" gradientUnits="userSpaceOnUse">
<stop stop-color="#82A1CA"/>
<stop offset="1" stop-color="#6582AA"/>
</linearGradient>
<linearGradient id="paint1_linear_3488_324" x1="128" y1="49" x2="128" y2="179" gradientUnits="userSpaceOnUse">
<stop stop-color="#142E50"/>
<stop offset="1" stop-color="#001534"/>
</linearGradient>
<linearGradient id="paint2_linear_3488_324" x1="170" y1="75" x2="86" y2="159" gradientUnits="userSpaceOnUse">
<stop stop-color="#FAFCFF"/>
<stop offset="1" stop-color="#E4F0FF"/>
</linearGradient>
</defs>
</svg>
