<svg width="32" height="32" viewBox="0 0 32 32" fill="none" xmlns="http://www.w3.org/2000/svg">
<g id="Size=32">
<path id="Rectangle 584" d="M2 9C2 7.34315 3.34315 6 5 6H27C28.6569 6 30 7.34315 30 9V23C30 24.6569 28.6569 26 27 26H5C3.34315 26 2 24.6569 2 23V9Z" fill="url(#paint0_linear_3488_308)"/>
<path id="Rectangle 585" d="M4 10.5C4 9.11929 5.11929 8 6.5 8H25.5C26.8807 8 28 9.11929 28 10.5V19.5C28 20.8807 26.8807 22 25.5 22H6.5C5.11929 22 4 20.8807 4 19.5V10.5Z" fill="url(#paint1_linear_3488_308)"/>
<path id="Ellipse 86" d="M21 15C21 17.7614 18.7614 20 16 20C13.2386 20 11 17.7614 11 15C11 12.2386 13.2386 10 16 10C18.7614 10 21 12.2386 21 15Z" fill="url(#paint2_linear_3488_308)"/>
<path id="Vector" d="M14.5039 12C14.3758 12.0003 14.2525 12.0554 14.1593 12.1539C14.0662 12.2525 14.0101 12.3871 14.0025 12.5303H14.001V12.545L14 12.5636C14 12.5766 14 12.5901 14.001 12.603L14 17.4364C14 17.5859 14.053 17.7292 14.1475 17.8349C14.2419 17.9406 14.3699 18 14.5034 18C14.5769 17.9997 14.6494 17.9814 14.7159 17.9465L14.7169 17.9476L14.7295 17.9397L14.7315 17.9386C14.7467 17.9302 14.7615 17.921 14.7758 17.911L18.7258 15.5039L18.7309 15.5016V15.4999C18.8107 15.4529 18.8777 15.3829 18.925 15.297C18.9724 15.2111 18.9982 15.1126 18.9999 15.0117C19.0016 14.9108 18.9791 14.8113 18.9347 14.7235C18.8903 14.6356 18.8256 14.5628 18.7475 14.5125L18.7384 14.5069L18.7364 14.5057L14.7471 12.0699H14.7461C14.672 12.0245 14.5884 12.0005 14.5039 12Z" fill="#001534"/>
<path id="Rectangle 664" d="M4 23.5C4 23.2239 4.22386 23 4.5 23H27.5C27.7761 23 28 23.2239 28 23.5C28 23.7761 27.7761 24 27.5 24H4.5C4.22386 24 4 23.7761 4 23.5Z" fill="#001534"/>
</g>
<defs>
<linearGradient id="paint0_linear_3488_308" x1="16" y1="6" x2="16" y2="26" gradientUnits="userSpaceOnUse">
<stop stop-color="#82A1CA"/>
<stop offset="1" stop-color="#6582AA"/>
</linearGradient>
<linearGradient id="paint1_linear_3488_308" x1="16" y1="8" x2="16" y2="22" gradientUnits="userSpaceOnUse">
<stop stop-color="#142E50"/>
<stop offset="1" stop-color="#001534"/>
</linearGradient>
<linearGradient id="paint2_linear_3488_308" x1="21" y1="10" x2="11" y2="20" gradientUnits="userSpaceOnUse">
<stop stop-color="#FAFCFF"/>
<stop offset="1" stop-color="#E4F0FF"/>
</linearGradient>
</defs>
</svg>
