<svg width="128" height="128" viewBox="0 0 128 128" fill="none" xmlns="http://www.w3.org/2000/svg">
<g id="Size=128">
<path id="Rectangle 584" d="M4 28C4 23.5817 7.58172 20 12 20H116C120.418 20 124 23.5817 124 28V100C124 104.418 120.418 108 116 108H12C7.58172 108 4 104.418 4 100V28Z" fill="url(#paint0_linear_3488_288)"/>
<path id="Rectangle 585" d="M12 31C12 27.6863 14.6863 25 18 25H110C113.314 25 116 27.6863 116 31V85C116 88.3137 113.314 91 110 91H18C14.6863 91 12 88.3137 12 85V31Z" fill="url(#paint1_linear_3488_288)"/>
<path id="Ellipse 86" d="M85 59.5C85 70.8218 75.598 80 64 80C52.402 80 43 70.8218 43 59.5C43 48.1782 52.402 39 64 39C75.598 39 85 48.1782 85 59.5Z" fill="url(#paint2_linear_3488_288)"/>
<path id="Vector" d="M57.1166 48C56.5782 48.0012 56.0606 48.203 55.6692 48.5644C55.2779 48.9257 55.0423 49.4193 55.0106 49.9446H55.0042V49.9983L55 50.0665C55 50.114 55 50.1636 55.0042 50.2112L55 67.9335C55 68.4816 55.2228 69.0072 55.6193 69.3947C56.0159 69.7823 56.5537 70 57.1145 70C57.423 69.999 57.7276 69.932 58.0068 69.8037L58.011 69.8078L58.0639 69.7789L58.0723 69.7747C58.1361 69.7441 58.1982 69.7103 58.2584 69.6735L74.8486 60.8475L74.8697 60.8392V60.833C75.2048 60.6608 75.4864 60.4038 75.6851 60.0889C75.8839 59.7741 75.9925 59.4128 75.9996 59.0429C76.0068 58.673 75.9121 58.308 75.7257 57.986C75.5392 57.664 75.2677 57.3969 74.9395 57.2125L74.9014 57.1918L74.893 57.1877L58.1379 48.2562H58.1336C57.8224 48.0897 57.4735 48.0017 57.1187 48H57.1166Z" fill="#001534"/>
<path id="Rectangle 664" d="M12 99C12 97.8954 12.8954 97 14 97H114C115.105 97 116 97.8954 116 99C116 100.105 115.105 101 114 101H14C12.8954 101 12 100.105 12 99Z" fill="#001534"/>
<path id="Ellipse 89" d="M104 99C104 101.761 101.761 104 99 104C96.2386 104 94 101.761 94 99C94 96.2386 96.2386 94 99 94C101.761 94 104 96.2386 104 99Z" fill="#001534"/>
</g>
<defs>
<linearGradient id="paint0_linear_3488_288" x1="64" y1="20" x2="64" y2="108" gradientUnits="userSpaceOnUse">
<stop stop-color="#82A1CA"/>
<stop offset="1" stop-color="#6582AA"/>
</linearGradient>
<linearGradient id="paint1_linear_3488_288" x1="64" y1="25" x2="64" y2="91" gradientUnits="userSpaceOnUse">
<stop stop-color="#142E50"/>
<stop offset="1" stop-color="#001534"/>
</linearGradient>
<linearGradient id="paint2_linear_3488_288" x1="85" y1="39" x2="44.0119" y2="80.9878" gradientUnits="userSpaceOnUse">
<stop stop-color="#FAFCFF"/>
<stop offset="1" stop-color="#E4F0FF"/>
</linearGradient>
</defs>
</svg>
