<svg width="48" height="48" viewBox="0 0 48 48" fill="none" xmlns="http://www.w3.org/2000/svg">
<g id="Size=48">
<path id="Rectangle 584" d="M2 11.5C2 9.567 3.567 8 5.5 8H42.5C44.433 8 46 9.567 46 11.5V36.5C46 38.433 44.433 40 42.5 40H5.5C3.567 40 2 38.433 2 36.5V11.5Z" fill="url(#paint0_linear_3488_302)"/>
<path id="Rectangle 585" d="M4 13C4 11.3431 5.34315 10 7 10H41C42.6569 10 44 11.3431 44 13V31C44 32.6569 42.6569 34 41 34H7C5.34315 34 4 32.6569 4 31V13Z" fill="url(#paint1_linear_3488_302)"/>
<path id="Ellipse 86" d="M32 22C32 26.4183 28.4183 30 24 30C19.5817 30 16 26.4183 16 22C16 17.5817 19.5817 14 24 14C28.4183 14 32 17.5817 32 22Z" fill="url(#paint2_linear_3488_302)"/>
<path id="Vector" d="M20.9071 17C20.6764 17.0005 20.4545 17.0923 20.2868 17.2565C20.1191 17.4208 20.0181 17.6452 20.0045 17.8839H20.0018V17.9083L20 17.9393C20 17.9609 20 17.9835 20.0018 18.0051L20 26.0607C20 26.3098 20.0955 26.5487 20.2654 26.7249C20.4354 26.901 20.6659 27 20.9062 27C21.0384 26.9995 21.169 26.9691 21.2886 26.9108L21.2904 26.9126L21.3131 26.8995L21.3167 26.8976C21.344 26.8837 21.3706 26.8683 21.3965 26.8516L28.5065 22.8398L28.5156 22.836V22.8332C28.6592 22.7549 28.7799 22.6381 28.8651 22.495C28.9502 22.3518 28.9968 22.1876 28.9998 22.0195C29.0029 21.8514 28.9623 21.6854 28.8824 21.5391C28.8025 21.3927 28.6861 21.2713 28.5455 21.1875L28.5292 21.1781L28.5256 21.1762L21.3448 17.1165H21.343C21.2096 17.0408 21.0592 17.0008 20.9071 17Z" fill="#001534"/>
<path id="Rectangle 664" d="M4 37C4 36.4477 4.44772 36 5 36H43C43.5523 36 44 36.4477 44 37C44 37.5523 43.5523 38 43 38H5C4.44771 38 4 37.5523 4 37Z" fill="#001534"/>
</g>
<defs>
<linearGradient id="paint0_linear_3488_302" x1="24" y1="8" x2="24" y2="40" gradientUnits="userSpaceOnUse">
<stop stop-color="#82A1CA"/>
<stop offset="1" stop-color="#6582AA"/>
</linearGradient>
<linearGradient id="paint1_linear_3488_302" x1="24" y1="10" x2="24" y2="34" gradientUnits="userSpaceOnUse">
<stop stop-color="#142E50"/>
<stop offset="1" stop-color="#001534"/>
</linearGradient>
<linearGradient id="paint2_linear_3488_302" x1="32" y1="14" x2="16" y2="30" gradientUnits="userSpaceOnUse">
<stop stop-color="#FAFCFF"/>
<stop offset="1" stop-color="#E4F0FF"/>
</linearGradient>
</defs>
</svg>
