<svg width="24" height="24" viewBox="0 0 24 24" fill="none" xmlns="http://www.w3.org/2000/svg">
<g id="Size=24">
<path id="Rectangle 584" d="M2 6.25C2 5.00736 3.00736 4 4.25 4H19.75C20.9926 4 22 5.00736 22 6.25V17.75C22 18.9926 20.9926 20 19.75 20H4.25C3.00736 20 2 18.9926 2 17.75V6.25Z" fill="url(#paint0_linear_3488_314)"/>
<path id="Rectangle 585" d="M3 7.5C3 6.67157 3.67157 6 4.5 6H19.5C20.3284 6 21 6.67157 21 7.5V16.5C21 17.3284 20.3284 18 19.5 18H4.5C3.67157 18 3 17.3284 3 16.5V7.5Z" fill="url(#paint1_linear_3488_314)"/>
<path id="Ellipse 86" d="M16 12C16 14.2091 14.2091 16 12 16C9.79086 16 8 14.2091 8 12C8 9.79086 9.79086 8 12 8C14.2091 8 16 9.79086 16 12Z" fill="url(#paint2_linear_3488_314)"/>
<path id="Vector" d="M10.5039 9C10.3758 9.00032 10.2525 9.05537 10.1593 9.15392C10.0662 9.25247 10.0101 9.38709 10.0025 9.53034H10.001V9.54499L10 9.56359C10 9.57655 10 9.59008 10.001 9.60304L10 14.4364C10 14.5859 10.053 14.7292 10.1475 14.8349C10.2419 14.9406 10.3699 15 10.5034 15C10.5769 14.9997 10.6494 14.9814 10.7159 14.9465L10.7169 14.9476L10.7295 14.9397L10.7315 14.9386C10.7467 14.9302 10.7615 14.921 10.7758 14.911L14.7258 12.5039L14.7309 12.5016V12.4999C14.8107 12.4529 14.8777 12.3829 14.925 12.297C14.9724 12.2111 14.9982 12.1126 14.9999 12.0117C15.0016 11.9108 14.9791 11.8113 14.9347 11.7235C14.8903 11.6356 14.8256 11.5628 14.7475 11.5125L14.7384 11.5069L14.7364 11.5057L10.7471 9.06989C10.673 9.02448 10.5884 9.00046 10.5039 9Z" fill="#001534"/>
</g>
<defs>
<linearGradient id="paint0_linear_3488_314" x1="12" y1="4" x2="12" y2="20" gradientUnits="userSpaceOnUse">
<stop stop-color="#82A1CA"/>
<stop offset="1" stop-color="#6582AA"/>
</linearGradient>
<linearGradient id="paint1_linear_3488_314" x1="12" y1="6" x2="12" y2="18" gradientUnits="userSpaceOnUse">
<stop stop-color="#142E50"/>
<stop offset="1" stop-color="#001534"/>
</linearGradient>
<linearGradient id="paint2_linear_3488_314" x1="16" y1="8" x2="8" y2="16" gradientUnits="userSpaceOnUse">
<stop stop-color="#FAFCFF"/>
<stop offset="1" stop-color="#E4F0FF"/>
</linearGradient>
</defs>
</svg>
