<svg width="64" height="64" viewBox="0 0 64 64" fill="none" xmlns="http://www.w3.org/2000/svg">
<g id="Size=64">
<path id="Rectangle 584" d="M2 14C2 11.7909 3.79086 10 6 10H58C60.2091 10 62 11.7909 62 14V50C62 52.2091 60.2091 54 58 54H6C3.79086 54 2 52.2091 2 50V14Z" fill="url(#paint0_linear_3488_295)"/>
<path id="Rectangle 585" d="M6 15C6 13.3431 7.34315 12 9 12H55C56.6569 12 58 13.3431 58 15V42C58 43.6569 56.6569 45 55 45H9C7.34314 45 6 43.6569 6 42V15Z" fill="url(#paint1_linear_3488_295)"/>
<path id="Ellipse 86" d="M43 28.5C43 34.299 38.299 39 32.5 39C26.701 39 22 34.299 22 28.5C22 22.701 26.701 18 32.5 18C38.299 18 43 22.701 43 28.5Z" fill="url(#paint2_linear_3488_295)"/>
<path id="Vector" d="M29.0079 23C28.7515 23.0006 28.505 23.1015 28.3187 23.2822C28.1323 23.4629 28.0202 23.7097 28.005 23.9723H28.002V23.9992L28 24.0333C28 24.057 28 24.0818 28.002 24.1056L28 32.9667C28 33.2408 28.1061 33.5036 28.2949 33.6974C28.4837 33.8911 28.7398 34 29.0069 34C29.1538 33.9995 29.2988 33.966 29.4318 33.9018L29.4338 33.9039L29.459 33.8894L29.463 33.8874C29.4934 33.872 29.5229 33.8551 29.5516 33.8367L37.4517 29.4237L37.4618 29.4196V29.4165C37.6213 29.3304 37.7554 29.2019 37.8501 29.0445C37.9447 28.887 37.9964 28.7064 37.9998 28.5214C38.0032 28.3365 37.9582 28.154 37.8694 27.993C37.7806 27.832 37.6513 27.6984 37.495 27.6062L37.4769 27.5959L37.4728 27.5938L29.4942 23.1281H29.4922C29.344 23.0449 29.1779 23.0008 29.0089 23H29.0079Z" fill="#001534"/>
<path id="Rectangle 664" d="M6 49.5C6 48.6716 6.67157 48 7.5 48H56.5C57.3284 48 58 48.6716 58 49.5C58 50.3284 57.3284 51 56.5 51H7.5C6.67157 51 6 50.3284 6 49.5Z" fill="#001534"/>
<path id="Ellipse 89" d="M52 49.5C52 50.8807 50.8807 52 49.5 52C48.1193 52 47 50.8807 47 49.5C47 48.1193 48.1193 47 49.5 47C50.8807 47 52 48.1193 52 49.5Z" fill="#001534"/>
</g>
<defs>
<linearGradient id="paint0_linear_3488_295" x1="32" y1="10" x2="32" y2="54" gradientUnits="userSpaceOnUse">
<stop stop-color="#82A1CA"/>
<stop offset="1" stop-color="#6582AA"/>
</linearGradient>
<linearGradient id="paint1_linear_3488_295" x1="32" y1="12" x2="32" y2="45" gradientUnits="userSpaceOnUse">
<stop stop-color="#142E50"/>
<stop offset="1" stop-color="#001534"/>
</linearGradient>
<linearGradient id="paint2_linear_3488_295" x1="43" y1="18" x2="22" y2="39" gradientUnits="userSpaceOnUse">
<stop stop-color="#FAFCFF"/>
<stop offset="1" stop-color="#E4F0FF"/>
</linearGradient>
</defs>
</svg>
